<svg id="Livello_2" data-name="Livello 2" xmlns="http://www.w3.org/2000/svg" viewBox="0 0 553.88 1614.88" width="100%" height="100%" fill="none" stroke="currentColor">
  <g id="ripasso">
    <g>
      <path d="M408.93,993.57c-44.8,0-81.12-36.32-81.12-81.1s36.32-81.12,81.12-81.12,81.1,36.32,81.1,81.12-36.32,81.1-81.1,81.1Z"/>
      <path d="M142.95,993.58c-44.8,0-81.11-36.32-81.11-81.13s36.3-81.11,81.11-81.11,81.11,36.3,81.11,81.11-36.3,81.13-81.11,81.13Z"/>
      <path d="M408.91,743.56c-44.8,0-81.1-36.32-81.1-81.1s36.3-81.12,81.1-81.12,81.12,36.32,81.12,81.12-36.32,81.1-81.12,81.1Z"/>
      <path d="M142.95,743.56c-44.8,0-81.12-36.32-81.12-81.12s36.32-81.1,81.12-81.1,81.1,36.32,81.1,81.1-36.32,81.12-81.1,81.12Z"/>
      <path d="M408.91,493.62c-44.78,0-81.1-36.32-81.1-81.12s36.32-81.1,81.1-81.1,81.12,36.3,81.12,81.1-36.32,81.12-81.12,81.12Z"/>
      <path d="M142.93,493.6c-44.78,0-81.1-36.32-81.1-81.12s36.32-81.1,81.1-81.1,81.12,36.32,81.12,81.1-36.32,81.12-81.12,81.12Z"/>
      <path d="M142.95,243.66c-44.8,0-81.12-36.32-81.12-81.1s36.32-81.12,81.12-81.12,81.1,36.32,81.1,81.12-36.32,81.1-81.1,81.1Z"/>
      <path d="M408.93,243.62c-44.78,0-81.1-36.3-81.1-81.1s36.32-81.12,81.1-81.12,81.12,36.32,81.12,81.12-36.32,81.1-81.12,81.1Z"/>
      <polygon points="36.26 39.91 36.3 1412.63 56.22 1432.65 130.65 1432.65 148.1 1402.14 403.65 1402.14 421.27 1432.65 495.65 1432.65 515.56 1412.63 515.56 39.91 495.73 19.91 416.89 19.89 390.45 46.43 161.36 46.41 135.01 19.93 56.21 19.93 36.26 39.91"/>
      <path d="M142.95,250.21c-48.34,0-87.67-39.33-87.67-87.67s39.33-87.67,87.67-87.67,87.67,39.33,87.67,87.67-39.33,87.67-87.67,87.67Z"/>
      <path d="M142.95,500.15c-48.34,0-87.67-39.33-87.67-87.67s39.33-87.67,87.67-87.67,87.67,39.33,87.67,87.67-39.33,87.67-87.67,87.67Z"/>
      <path d="M142.95,750.11c-48.34,0-87.67-39.33-87.67-87.67s39.33-87.67,87.67-87.67,87.67,39.33,87.67,87.67-39.33,87.67-87.67,87.67Z"/>
      <path d="M142.95,1000.12c-48.34,0-87.67-39.33-87.67-87.67s39.33-87.67,87.67-87.67,87.67,39.33,87.67,87.67-39.33,87.67-87.67,87.67Z"/>
      <path d="M408.92,1000.13c-48.34,0-87.67-39.33-87.67-87.67s39.33-87.67,87.67-87.67,87.67,39.33,87.67,87.67-39.33,87.67-87.67,87.67Z"/>
      <path d="M408.92,750.11c-48.34,0-87.67-39.33-87.67-87.67s39.33-87.67,87.67-87.67,87.67,39.33,87.67,87.67-39.33,87.67-87.67,87.67Z"/>
      <path d="M408.92,500.17c-48.34,0-87.67-39.33-87.67-87.67s39.33-87.67,87.67-87.67,87.67,39.33,87.67,87.67-39.33,87.67-87.67,87.67Z"/>
      <path d="M408.93,250.18c-48.34,0-87.67-39.33-87.67-87.67s39.33-87.67,87.67-87.67,87.67,39.33,87.67,87.67-39.33,87.67-87.67,87.67Z"/>
      <g>
        <polygon points="15.62 916.99 15.62 607.32 15.62 505.86 18.78 490.71 18.78 424.95 15.62 409.79 15.62 30.84 46.06 .4 146.41 .4 172.78 26.78 381.1 26.78 407.47 .4 507.83 .4 538.26 30.84 538.26 409.79 535.11 424.95 535.11 490.67 538.26 505.87 538.26 916.99 535.11 932.15 535.11 997.9 538.26 1013.07 538.26 1420.67 507.83 1451.11 408.83 1451.11 391.26 1420.67 162.62 1420.67 145.06 1451.11 46.06 1451.11 15.62 1420.67 15.62 1013.07 18.78 997.9 18.77 932.15 15.62 916.99"/>
        <polyline points="538.26 916.99 553.48 932.15 553.48 997.91 538.26 1013.07"/>
        <polyline points="538.26 409.79 553.48 424.95 553.48 490.71 538.26 505.87"/>
        <polyline points="15.62 916.99 .4 932.15 .4 997.91 15.62 1013.07"/>
        <polyline points="15.62 409.79 .4 424.95 .4 490.71 15.62 505.87"/>
        <rect x="169.2" y="1420.67" width="139.75" height="2.34"/>
        <rect x="165.57" y="1423.01" width="146.98" height="28.91"/>
        <rect x="188.35" y="1451.92" width="101.44" height="68.73"/>
        <polygon points="188.35 1520.64 165.52 1520.64 165.57 1573.19 175.08 1582.75 175.08 1605.65 175.31 1607.27 176.48 1610.3 178.67 1612.69 181.57 1614.14 183.97 1614.48 184.54 1614.48 293.59 1614.48 294.15 1614.48 296.56 1614.14 299.46 1612.69 301.65 1610.3 302.81 1607.27 303.05 1605.65 303.05 1582.75 312.61 1573.19 312.61 1520.64 188.35 1520.64"/>
        <g>
          <polygon points="69.88 155.19 69.88 171.91 99.17 222.65 113.65 231.01 172.24 231.01 186.72 222.65 216.01 171.91 216.01 155.19 186.89 104.75 169.82 95.09 116.08 95.09 99.17 104.45 69.88 155.19"/>
          <path d="M172.86,167.49c2.17-16.52-9.46-31.68-25.98-33.85-16.52-2.18-31.68,9.45-33.85,25.97-2.18,16.52,9.45,31.68,25.98,33.85,16.52,2.18,31.68-9.45,33.85-25.98Z"/>
        </g>
        <g>
          <polygon points="336.15 155.19 336.15 171.91 365.44 222.65 379.92 231.01 438.51 231.01 452.99 222.65 482.28 171.91 482.28 155.19 453.16 104.75 436.08 95.09 382.35 95.09 365.44 104.45 336.15 155.19"/>
          <path d="M439.13,167.49c2.17-16.52-9.46-31.68-25.98-33.85-16.52-2.18-31.68,9.45-33.85,25.97-2.18,16.52,9.45,31.68,25.98,33.85,16.52,2.18,31.68-9.45,33.85-25.98Z"/>
        </g>
        <g>
          <polygon points="69.88 404.63 69.88 421.35 99.17 472.09 113.65 480.44 172.24 480.44 186.72 472.09 216.01 421.35 216.01 404.63 186.89 354.19 169.82 344.53 116.08 344.53 99.17 353.89 69.88 404.63"/>
          <path d="M172.86,416.92c2.17-16.52-9.46-31.68-25.98-33.85-16.52-2.18-31.68,9.45-33.85,25.97-2.18,16.52,9.45,31.68,25.98,33.85,16.52,2.18,31.68-9.45,33.85-25.98Z"/>
        </g>
        <g>
          <polygon points="336.15 404.63 336.15 421.35 365.44 472.09 379.92 480.44 438.51 480.44 452.99 472.09 482.28 421.35 482.28 404.63 453.16 354.19 436.08 344.53 382.35 344.53 365.44 353.89 336.15 404.63"/>
          <path d="M439.13,416.92c2.17-16.52-9.46-31.68-25.98-33.85-16.52-2.18-31.68,9.45-33.85,25.97-2.18,16.52,9.45,31.68,25.98,33.85,16.52,2.18,31.68-9.45,33.85-25.98Z"/>
        </g>
        <g>
          <polygon points="69.88 653.47 69.88 670.19 99.17 720.92 113.65 729.28 172.24 729.28 186.72 720.92 216.01 670.19 216.01 653.47 186.89 603.03 169.82 593.37 116.08 593.37 99.17 602.73 69.88 653.47"/>
          <path d="M172.86,665.76c2.17-16.52-9.46-31.68-25.98-33.85-16.52-2.18-31.68,9.45-33.85,25.97-2.18,16.52,9.45,31.68,25.98,33.85,16.52,2.18,31.68-9.45,33.85-25.98Z"/>
        </g>
        <g>
          <polygon points="336.15 653.47 336.15 670.19 365.44 720.92 379.92 729.28 438.51 729.28 452.99 720.92 482.28 670.19 482.28 653.47 453.16 603.03 436.08 593.37 382.35 593.37 365.44 602.73 336.15 653.47"/>
          <path d="M439.13,665.76c2.17-16.52-9.46-31.68-25.98-33.85-16.52-2.18-31.68,9.45-33.85,25.97-2.18,16.52,9.45,31.68,25.98,33.85,16.52,2.18,31.68-9.45,33.85-25.98Z"/>
        </g>
        <g>
          <polygon points="69.88 902.91 69.88 919.62 99.17 970.36 113.65 978.72 172.24 978.72 186.72 970.36 216.01 919.62 216.01 902.91 186.89 852.46 169.82 842.81 116.08 842.81 99.17 852.17 69.88 902.91"/>
          <path d="M172.86,915.2c2.17-16.52-9.46-31.68-25.98-33.85-16.52-2.18-31.68,9.45-33.85,25.97-2.18,16.52,9.45,31.68,25.98,33.85,16.52,2.18,31.68-9.45,33.85-25.98Z"/>
        </g>
        <g>
          <polygon points="336.15 902.91 336.15 919.62 365.44 970.36 379.92 978.72 438.51 978.72 452.99 970.36 482.28 919.62 482.28 902.91 453.16 852.46 436.08 842.81 382.35 842.81 365.44 852.17 336.15 902.91"/>
          <path d="M439.13,915.2c2.17-16.52-9.46-31.68-25.98-33.85-16.52-2.18-31.68,9.45-33.85,25.97-2.18,16.52,9.45,31.68,25.98,33.85,16.52,2.18,31.68-9.45,33.85-25.98Z"/>
        </g>
      </g>
    </g>
  </g>
</svg>