<?xml version="1.0" encoding="UTF-8"?>
<svg id="Livello_2" data-name="Livello 2" xmlns="http://www.w3.org/2000/svg" viewBox="0 0 550.28 1201.26" width="100%" height="100%" fill="none" stroke="currentColor">
  <g id="ripasso">
    <g>
      <polygon points="161.6 46.35 135.4 20.14 55.82 20.14 35.26 40.7 35.26 998.25 55.82 1018.81 131.36 1018.81 148.81 988.57 401.48 988.57 418.93 1018.81 494.46 1018.81 515.02 998.25 515.02 40.7 494.46 20.14 414.88 20.14 388.68 46.35 161.6 46.35"/>
      <path d="M406.4,587.75c-3.74,0-7.53-.25-11.27-.74-22.66-2.98-42.8-14.61-56.71-32.74-13.91-18.13-19.93-40.6-16.95-63.25,5.58-42.42,42.01-74.4,84.73-74.4,3.74,0,7.53.25,11.27.74,22.66,2.98,42.8,14.61,56.71,32.74,13.91,18.13,19.93,40.6,16.95,63.25-5.58,42.41-42.01,74.4-84.73,74.4h0Z"/>
      <path d="M482.71,512.24c5.56-42.2-24.15-80.92-66.35-86.48-42.2-5.56-80.92,24.15-86.48,66.35-5.56,42.2,24.15,80.92,66.35,86.48,42.2,5.56,80.92-24.15,86.48-66.35Z"/>
      <path d="M436.02,506.1c2.16-16.41-9.39-31.47-25.8-33.63-16.41-2.16-31.47,9.39-33.63,25.81-2.16,16.41,9.39,31.47,25.81,33.63,16.41,2.16,31.47-9.39,33.63-25.8Z"/>
      <polygon points="333.71 493.88 333.71 510.49 362.81 560.9 377.19 569.2 435.4 569.2 449.78 560.9 478.89 510.49 478.89 493.88 449.96 443.76 432.99 434.17 379.6 434.17 362.81 443.47 333.71 493.88"/>
      <path d="M144.4,587.75c-3.74,0-7.53-.25-11.27-.74-22.66-2.98-42.8-14.61-56.71-32.74-13.91-18.13-19.93-40.6-16.95-63.25,5.58-42.42,42.01-74.4,84.73-74.4,3.74,0,7.53.25,11.27.74,22.66,2.98,42.8,14.61,56.71,32.74,13.91,18.13,19.93,40.6,16.95,63.25-5.59,42.42-42.01,74.4-84.73,74.4h0Z"/>
      <path d="M220.71,512.24c5.56-42.2-24.15-80.92-66.36-86.48-42.2-5.56-80.92,24.15-86.48,66.35-5.56,42.2,24.15,80.92,66.35,86.48,42.2,5.56,80.92-24.15,86.48-66.35Z"/>
      <path d="M174.02,506.1c2.16-16.41-9.39-31.47-25.81-33.63-16.41-2.16-31.47,9.39-33.63,25.81-2.16,16.41,9.39,31.47,25.81,33.63,16.41,2.16,31.47-9.39,33.63-25.8Z"/>
      <polygon points="71.71 493.88 71.71 510.49 100.81 560.9 115.19 569.2 173.4 569.2 187.78 560.9 216.89 510.49 216.89 493.88 187.96 443.76 170.99 434.17 117.6 434.17 100.81 443.47 71.71 493.88"/>
      <path d="M406.4,340.64c-3.74,0-7.53-.25-11.27-.74-22.66-2.98-42.8-14.61-56.71-32.74-13.91-18.13-19.93-40.6-16.95-63.25,5.58-42.42,42.01-74.4,84.73-74.4,3.74,0,7.53.25,11.26.74,22.66,2.98,42.8,14.61,56.71,32.74s19.93,40.6,16.95,63.25c-5.58,42.41-42.01,74.4-84.73,74.4h0Z"/>
      <path d="M482.71,265.13c5.56-42.2-24.15-80.92-66.35-86.48-42.2-5.56-80.92,24.15-86.48,66.36-5.56,42.2,24.15,80.92,66.35,86.48,42.2,5.56,80.92-24.15,86.48-66.35Z"/>
      <path d="M436.02,258.98c2.16-16.41-9.39-31.47-25.8-33.63-16.41-2.16-31.47,9.39-33.63,25.81-2.16,16.41,9.39,31.47,25.81,33.63,16.41,2.16,31.47-9.39,33.63-25.81Z"/>
      <polygon points="333.71 246.76 333.71 263.37 362.81 313.78 377.19 322.08 435.4 322.08 449.78 313.78 478.89 263.37 478.89 246.76 449.96 196.65 432.99 187.05 379.6 187.05 362.81 196.35 333.71 246.76"/>
      <polygon points="187.13 1107.63 164.45 1107.63 164.51 1159.84 173.95 1169.34 173.95 1192.09 174.18 1193.7 175.35 1196.7 177.51 1199.08 180.39 1200.52 182.78 1200.85 183.35 1200.85 291.69 1200.85 292.25 1200.85 294.64 1200.52 297.52 1199.08 299.69 1196.7 300.86 1193.7 301.09 1192.09 301.09 1169.34 310.58 1159.84 310.58 1107.63 187.13 1107.63"/>
      <rect x="187.13" y="1039.36" width="100.78" height="68.28"/>
      <rect x="164.51" y="1010.63" width="146.03" height="28.72"/>
      <rect x="168.11" y="1008.31" width="138.84" height="2.32"/>
      <path d="M144.4,340.64c-3.74,0-7.53-.25-11.27-.74-22.66-2.98-42.8-14.61-56.71-32.74-13.91-18.13-19.93-40.6-16.95-63.25,5.58-42.42,42.01-74.4,84.73-74.4,3.74,0,7.53.25,11.26.74,46.77,6.16,79.82,49.22,73.66,96-5.59,42.42-42.01,74.4-84.73,74.4h0Z"/>
      <path d="M220.71,265.13c5.56-42.2-24.15-80.92-66.36-86.48-42.2-5.56-80.92,24.15-86.48,66.36-5.56,42.2,24.15,80.92,66.35,86.48,42.2,5.56,80.92-24.15,86.48-66.35Z"/>
      <path d="M174.02,258.98c2.16-16.41-9.39-31.47-25.81-33.63-16.41-2.16-31.47,9.39-33.63,25.81-2.16,16.41,9.39,31.47,25.81,33.63,16.41,2.16,31.47-9.39,33.63-25.81Z"/>
      <polygon points="71.71 246.76 71.71 263.37 100.81 313.78 115.19 322.08 173.4 322.08 187.78 313.78 216.89 263.37 216.89 246.76 187.96 196.65 170.99 187.05 117.6 187.05 100.81 196.35 71.71 246.76"/>
      <polyline points="15.52 507.91 .4 522.97 .4 588.3 15.52 603.36"/>
      <polygon points="45.76 .4 145.46 .4 171.66 26.61 378.62 26.61 404.82 .4 504.52 .4 534.76 30.64 534.76 507.91 531.63 522.96 531.63 588.26 534.76 603.36 534.76 1008.32 504.52 1038.55 406.17 1038.55 388.72 1008.32 161.57 1008.32 144.11 1038.55 45.76 1038.55 15.52 1008.32 15.52 603.37 15.52 603.36 18.66 588.3 18.65 522.97 15.52 507.91 15.52 30.64 45.76 .4"/>
      <polyline points="534.76 507.91 549.88 522.97 549.88 588.3 534.76 603.36"/>
    </g>
  </g>
</svg>