<?xml version="1.0" encoding="UTF-8"?>
<svg id="Livello_2" data-name="Livello 2" xmlns="http://www.w3.org/2000/svg" viewBox="0 0 612.5 691.97" width="100%" height="100%" fill="none" stroke="currentColor">
  <g id="ripasso">
    <g>
      <line x1="426.87" y1="47.12" x2="270.09" y2="47.12"/>
      <line x1="414.91" y1="148.57" x2="282.05" y2="148.57"/>
      <line x1="414.91" y1="148.57" x2="414.91" y2="119.49"/>
      <path d="M394.34.4c19.55,7.24,32.52,25.88,32.52,46.72"/>
      <path d="M270.09,47.12c0-20.84,12.98-39.49,32.52-46.72"/>
      <polyline points="260.78 184.66 260.78 152.37 282.05 148.57 282.05 119.49 260.78 119.49 260.78 52.69 270.09 47.12"/>
      <line x1="302.61" y1=".4" x2="394.34" y2=".4"/>
      <polyline points="426.87 47.12 436.5 52.69 436.5 119.49 414.91 119.49"/>
      <line x1="282.05" y1="119.49" x2="414.91" y2="119.49"/>
      <polyline points="414.91 148.57 436.5 152.37 436.5 184.66"/>
      <polygon points="20.36 194.79 10.54 204.62 10.54 671.61 20.36 681.43 592.13 681.43 601.96 671.61 601.96 204.62 592.13 194.79 20.36 194.79"/>
      <polygon points=".4 204.62 20.36 184.66 592.13 184.66 612.09 204.62 612.09 671.61 592.13 691.57 20.36 691.57 .4 671.61 .4 204.62"/>
    </g>
  </g>
</svg>