<?xml version="1.0" standalone="no"?>
<!DOCTYPE svg PUBLIC "-//W3C//DTD SVG 20010904//EN"
 "http://www.w3.org/TR/2001/REC-SVG-20010904/DTD/svg10.dtd">
<svg version="1.0" xmlns="http://www.w3.org/2000/svg"
 width="300.000000pt" height="808.000000pt" viewBox="0 0 300.000000 808.000000"
 preserveAspectRatio="xMidYMid meet">
<metadata>
Created by potrace 1.10, written by Peter Selinger 2001-2011
</metadata>
<g transform="translate(0.000000,808.000000) scale(0.100000,-0.100000)"
fill="currentColor" stroke="none">
<path d="M267 7992 l-77 -77 0 -269 c0 -148 2 -267 5 -264 3 2 7 126 9 274 l5
269 76 73 c42 39 73 72 68 72 -5 0 -43 -35 -86 -78z"/>
<path d="M790 8064 c8 -3 44 -36 79 -74 35 -39 68 -70 74 -70 7 0 -22 34 -63
75 -41 41 -81 74 -90 74 -13 -1 -13 -2 0 -5z"/>
<path d="M2149 8057 c-25 -20 -121 -129 -117 -133 4 -4 148 134 148 142 0 8
-15 3 -31 -9z"/>
<path d="M2691 7993 c38 -37 67 -73 65 -80 -3 -7 -1 -15 4 -18 6 -4 10 -106
10 -252 0 -136 3 -244 6 -240 3 3 6 119 6 258 l-1 252 -73 74 c-40 40 -76 73
-79 73 -4 0 24 -30 62 -67z"/>
<path d="M322 7937 l-52 -53 0 -3450 0 -3451 54 -51 53 -50 190 -2 c147 0 192
2 196 12 3 10 -35 12 -191 10 l-195 -3 -49 48 -48 47 0 3446 0 3446 48 47 48
47 200 0 200 0 64 -65 64 -65 581 0 581 0 64 65 64 65 201 0 201 0 46 -47 c39
-40 47 -55 51 -93 l4 -45 1 45 c2 43 -1 49 -51 98 l-53 52 -200 0 -200 0 -64
-65 -64 -65 -581 0 -581 0 -64 65 -64 65 -201 0 -201 0 -52 -53z"/>
<path d="M1278 7933 c106 -2 277 -2 380 0 103 1 16 2 -193 2 -209 0 -293 -1
-187 -2z"/>
<path d="M2695 7155 c0 -346 1 -487 2 -312 2 175 2 459 0 630 -1 172 -2 29 -2
-318z"/>
<path d="M587 7667 c-43 -26 -63 -53 -141 -193 -68 -122 -72 -157 -25 -236 17
-29 40 -75 51 -102 67 -172 243 -271 415 -236 78 16 126 42 189 101 133 126
149 337 37 483 -21 27 -54 74 -74 105 -58 91 -84 101 -264 101 -138 0 -153 -2
-188 -23z m333 -19 c49 -23 73 -45 120 -108 131 -176 68 -415 -134 -506 -125
-56 -290 -25 -374 71 -90 103 -127 248 -83 325 11 19 29 54 41 77 11 23 24 43
28 45 4 2 14 16 22 33 9 17 35 39 65 55 45 23 61 25 165 25 84 -1 124 -5 150
-17z m240 -320 c0 -27 -7 -65 -15 -85 -18 -44 -18 -43 0 -43 14 0 14 -4 0 -37
-29 -69 -95 -161 -113 -158 -24 3 -90 -36 -96 -57 -4 -16 -18 -18 -114 -18
-101 0 -110 2 -115 20 -4 15 -14 20 -39 20 -31 1 -98 29 -69 30 11 0 11 3 1
15 -16 19 -8 19 38 -1 24 -10 68 -16 127 -17 85 -1 95 2 168 37 46 23 87 51
101 70 37 49 86 153 86 182 0 15 8 36 17 46 14 16 15 24 5 51 -10 29 -10 30 3
13 9 -11 15 -41 15 -68z"/>
<path d="M820 7422 c-54 -6 -72 -14 -110 -48 -21 -20 -42 -49 -45 -66 -5 -23
-9 -27 -16 -17 -13 21 -11 -28 2 -53 10 -18 9 -20 -7 -14 -33 13 28 -45 63
-60 38 -16 99 -18 108 -4 4 6 10 8 15 5 14 -8 74 35 98 69 29 42 42 108 28
133 -6 11 -16 18 -22 16 -6 -2 -15 7 -22 21 -11 24 -22 26 -92 18z m85 -44
c55 -25 10 -134 -73 -177 -45 -24 -150 -9 -153 21 -5 58 24 115 74 147 36 23
111 28 152 9z"/>
<path d="M1988 7669 c-40 -21 -98 -99 -150 -204 -17 -33 -40 -71 -52 -84 -11
-13 -16 -21 -10 -18 9 5 13 -24 16 -101 3 -99 6 -112 38 -170 68 -127 180
-195 325 -195 167 -1 303 97 350 254 9 30 25 77 36 104 28 74 24 103 -27 196
-132 239 -132 239 -345 239 -123 -1 -149 -4 -181 -21z m274 -1 c28 5 107 -39
141 -78 40 -47 91 -142 106 -196 24 -88 -33 -243 -114 -310 -139 -113 -334
-103 -462 25 -56 55 -80 102 -92 181 -18 113 29 235 123 318 55 48 146 81 146
52 0 -9 38 -8 60 0 3 1 12 2 22 1 9 -1 19 3 23 9 3 6 12 7 18 3 7 -4 19 -6 29
-5z m-396 -489 c54 -103 132 -159 254 -181 44 -9 71 -7 130 6 41 9 86 18 99
21 14 2 37 19 52 37 67 82 71 84 37 18 -36 -68 -86 -108 -142 -112 -17 -2 -25
-8 -23 -18 2 -13 -16 -15 -112 -18 -100 -2 -113 -1 -107 13 3 9 2 14 -2 11
-15 -9 -113 55 -133 87 -18 28 -20 29 -14 7 6 -24 5 -23 -15 5 -25 36 -60 101
-60 112 0 4 10 -3 21 -17 14 -18 11 -6 -10 37 -17 34 -31 65 -31 68 0 18 24
-14 56 -76z"/>
<path d="M2058 7407 c-15 -6 -32 -23 -39 -39 -6 -15 -15 -25 -20 -22 -5 3 -9
-12 -9 -34 0 -52 44 -112 102 -139 40 -19 66 -22 156 -15 30 3 102 80 102 111
0 21 -2 22 -16 10 -15 -12 -16 -11 -10 16 6 26 1 35 -26 62 -18 17 -47 38 -65
47 -36 18 -133 20 -175 3z m193 -53 c17 -16 38 -44 46 -63 13 -30 12 -35 -4
-53 -32 -36 -73 -50 -128 -46 -63 5 -108 35 -135 88 l-19 38 27 27 c38 38 59
45 125 42 47 -3 62 -8 88 -33z"/>
<path d="M2781 7060 c-1 -179 -5 -451 -9 -605 -10 -352 -7 -464 13 -511 17
-40 22 -308 6 -318 -22 -14 -30 -137 -30 -419 0 -165 4 -309 9 -320 5 -13 9
122 10 333 0 336 1 356 20 380 17 22 20 42 20 181 0 143 -2 157 -20 174 -19
17 -20 31 -20 342 l0 323 105 109 105 108 0 52 0 51 -75 0 c-88 0 -115 17
-115 74 0 51 28 66 117 66 l73 0 0 47 c0 46 -2 49 -104 152 l-103 106 -2 -325z
m114 174 c62 -62 76 -80 73 -102 -3 -26 -6 -27 -78 -33 -41 -3 -78 -4 -82 -1
-12 5 -10 212 2 212 5 0 44 -34 85 -76z m0 -320 c69 -7 75 -10 75 -39 0 -19
-20 -47 -74 -100 -40 -41 -79 -75 -85 -75 -7 0 -11 37 -11 116 0 116 0 116 23
109 12 -4 45 -9 72 -11z"/>
<path d="M91 7256 c-80 -82 -82 -86 -79 -128 l3 -43 75 -5 c41 -3 80 -8 85
-12 6 -4 10 43 10 133 0 76 -3 139 -6 139 -3 0 -43 -38 -88 -84z m79 -65 c0
-98 1 -96 -68 -100 -91 -6 -96 44 -15 129 32 33 64 60 70 60 10 0 13 -24 13
-89z"/>
<path d="M1198 7245 c-8 -130 -53 -216 -150 -288 -71 -53 -116 -70 -205 -75
-137 -8 -242 39 -331 147 -52 64 -55 58 -5 -9 42 -56 99 -100 170 -131 38 -17
68 -22 143 -22 85 0 102 3 160 30 154 70 251 240 230 398 -5 31 -7 19 -12 -50z"/>
<path d="M1759 7295 c-24 -154 77 -328 231 -398 58 -27 75 -30 160 -30 77 0
104 5 145 23 58 27 128 77 145 104 7 10 -10 0 -37 -22 -68 -57 -134 -84 -224
-89 -94 -7 -166 13 -242 64 -105 71 -157 166 -166 303 -5 71 -7 78 -12 45z"/>
<path d="M170 6950 c-8 -5 -47 -10 -87 -10 l-72 0 0 -54 1 -53 87 -87 86 -86
0 150 c0 83 0 150 0 150 0 0 -7 -5 -15 -10z m-2 -124 c2 -49 -1 -93 -6 -98
-11 -11 -132 115 -132 137 0 41 17 52 77 51 l58 -2 3 -88z"/>
<path d="M189 6173 c-3 -258 -2 -666 1 -908 5 -360 6 -274 8 468 1 499 0 907
-2 907 -1 0 -5 -210 -7 -467z"/>
<path d="M906 6383 c-4 -4 -67 -6 -141 -4 -195 4 -195 4 -343 -260 -47 -84
-44 -115 26 -240 101 -180 92 -171 202 -225 71 -35 80 -37 170 -36 105 0 169
21 243 80 114 91 173 253 142 391 -20 94 -106 216 -175 250 -20 10 -19 7 5
-11 103 -77 156 -174 163 -295 10 -175 -85 -322 -246 -384 -73 -28 -197 -30
-260 -4 -59 24 -46 30 24 9 155 -45 319 16 408 150 105 158 80 345 -63 478
-36 34 -65 67 -63 73 2 5 0 7 -3 3 -4 -4 -24 1 -45 12 -21 11 -40 16 -44 13z
m5 -51 c149 -67 233 -253 184 -403 -44 -131 -132 -210 -268 -239 -39 -9 -38
-9 16 -5 38 4 71 14 97 30 22 14 44 25 50 25 26 0 141 204 156 277 5 27 -4 52
-55 150 -66 127 -51 119 23 -11 59 -105 65 -140 32 -211 -14 -31 -21 -53 -16
-50 18 11 10 -9 -23 -63 -18 -29 -36 -50 -39 -47 -3 3 -17 -12 -31 -34 -26
-39 -67 -71 -67 -52 0 5 -11 6 -27 2 -16 -5 -27 -14 -25 -20 6 -28 -207 1
-297 39 -64 28 -98 67 -151 172 -40 78 -42 87 -38 148 4 49 12 75 32 104 14
21 26 42 26 47 0 4 14 28 30 53 55 82 145 119 271 112 47 -2 93 -12 120 -24z"/>
<path d="M809 6189 c-8 -5 -31 -9 -51 -9 -21 0 -37 -3 -36 -7 1 -5 -12 -23
-30 -42 -18 -18 -32 -39 -32 -47 0 -8 -4 -14 -10 -14 -11 0 -14 -80 -4 -126 3
-17 19 -39 37 -52 17 -12 25 -22 17 -22 -21 0 21 -29 43 -30 9 0 17 -4 17 -10
0 -5 9 -10 19 -10 11 0 23 5 26 10 3 6 18 10 31 10 18 0 41 16 74 51 59 63 64
80 46 189 -10 62 -108 134 -147 109z m87 -69 c58 -87 32 -192 -59 -238 -53
-28 -84 -25 -118 11 -44 46 -53 119 -24 181 22 45 86 86 137 86 33 0 41 -5 64
-40z"/>
<path d="M1951 6343 c-274 -163 -254 -556 36 -693 62 -30 77 -33 163 -33 84 0
101 3 150 28 68 34 122 74 115 86 -3 4 7 23 23 41 42 49 122 214 122 252 0 21
-19 67 -51 126 -81 146 -107 183 -147 207 -34 21 -49 23 -192 23 l-155 0 -64
-37z m376 -16 c121 -62 206 -223 183 -347 -29 -152 -146 -273 -279 -288 -40
-5 -43 -7 -21 -14 22 -7 22 -7 -5 -3 -143 20 -203 46 -277 120 -51 49 -54 48
-15 -8 10 -16 17 -31 14 -34 -7 -6 -45 53 -86 135 -37 74 -34 83 5 12 29 -54
44 -63 18 -12 -22 45 -34 140 -23 195 13 71 32 108 87 168 79 86 140 110 267
105 62 -3 92 -9 132 -29z m-435 -61 c-67 -72 -95 -138 -100 -233 -7 -133 37
-234 137 -316 85 -69 232 -96 335 -61 60 21 71 12 14 -11 -63 -26 -187 -24
-260 4 -67 26 -144 85 -181 139 -75 107 -88 269 -33 384 26 53 113 154 124
144 3 -3 -13 -26 -36 -50z"/>
<path d="M2059 6167 c-130 -88 -89 -279 71 -332 49 -16 55 -16 106 0 39 12 54
22 55 36 2 29 3 31 22 72 48 101 5 202 -99 233 -45 13 -57 13 -93 0 -35 -12
-40 -12 -30 0 16 20 7 17 -32 -9z m160 -22 c94 -48 118 -163 50 -240 -36 -41
-76 -51 -134 -35 -98 28 -156 158 -102 231 39 52 130 74 186 44z"/>
<path d="M2694 5875 c0 -88 2 -123 3 -77 2 46 2 118 0 160 -1 42 -3 5 -3 -83z"/>
<path d="M2694 5465 c0 -121 2 -169 3 -107 2 62 2 161 0 220 -1 59 -3 8 -3
-113z"/>
<path d="M2694 4930 c0 -173 2 -244 3 -157 2 86 2 228 0 315 -1 86 -3 15 -3
-158z"/>
<path d="M837 5140 c149 -16 261 -91 330 -221 26 -49 28 -63 28 -159 0 -92 -4
-112 -26 -160 -29 -60 -88 -133 -122 -152 -12 -6 3 16 35 50 92 100 125 220
94 342 -30 115 -99 199 -206 249 -47 22 -68 26 -151 26 -95 0 -98 -1 -185 -45
l-87 -45 -79 -135 c-103 -178 -103 -176 -1 -354 102 -178 98 -176 307 -176
176 0 181 1 275 77 110 90 162 192 163 318 0 159 -89 297 -232 362 -41 18 -77
25 -140 28 l-85 4 82 -9z m126 -81 c12 -6 41 -32 65 -57 24 -27 39 -38 36 -27
-11 32 11 7 50 -59 39 -66 47 -95 15 -56 -23 28 -22 25 10 -45 35 -73 31 -131
-14 -211 -36 -65 -59 -90 -29 -33 31 61 43 106 31 118 -8 8 -7 11 6 11 9 0 17
7 17 15 0 8 -6 12 -13 9 -10 -3 -13 3 -10 23 5 32 -46 139 -101 214 -52 70
-101 90 -249 97 -114 7 -117 7 -52 12 100 7 212 2 238 -11z m-58 -43 c102 -46
162 -119 193 -233 22 -80 16 -135 -21 -217 -28 -60 -96 -135 -147 -161 -40
-21 -223 -30 -281 -15 -55 15 -122 69 -133 108 -5 18 -13 32 -18 32 -5 0 -7 4
-4 9 3 5 -5 20 -18 34 -74 79 -57 218 43 354 80 110 252 150 386 89z"/>
<path d="M705 4886 c-16 -7 -36 -24 -43 -36 -10 -17 -10 -20 -1 -14 7 4 5 -3
-4 -17 -17 -24 -24 -115 -8 -105 5 3 14 -8 21 -24 16 -39 74 -89 110 -97 33
-6 31 -29 -3 -36 -16 -3 -14 -5 9 -6 18 0 48 11 76 28 31 20 49 26 56 19 12
-12 42 40 47 81 5 36 -23 121 -49 149 -53 59 -152 86 -211 58z m110 -31 c39
-8 92 -59 106 -103 6 -19 8 -53 4 -78 -5 -36 -12 -47 -31 -55 -62 -23 -154 3
-186 54 -26 38 -35 88 -26 134 8 36 14 44 41 52 18 5 39 8 47 6 8 -2 29 -6 45
-10z"/>
<path d="M2060 5140 c-108 -23 -221 -114 -265 -214 -73 -166 -41 -326 93 -464
103 -106 92 -102 282 -102 221 0 208 -8 335 217 55 100 70 164 45 189 -6 6
-24 46 -40 89 -37 100 -71 147 -139 196 -74 53 -144 73 -242 67 -94 -6 -163
-36 -232 -104 -72 -72 -100 -139 -105 -248 -4 -81 -1 -97 22 -150 15 -33 37
-74 50 -90 38 -52 41 -62 7 -31 -18 16 -46 59 -64 95 -27 53 -33 79 -36 147
-5 121 24 197 105 280 77 79 147 112 259 122 75 8 77 8 20 8 -33 1 -76 -3 -95
-7z m272 -79 c5 -4 -34 -5 -85 -3 -126 4 -245 -13 -275 -41 -36 -33 -86 -105
-123 -176 -18 -36 -34 -60 -37 -53 -4 13 15 51 80 160 56 93 84 113 168 122
69 7 263 0 272 -9z m-77 -26 c67 -18 126 -52 168 -99 36 -39 82 -138 90 -192
8 -51 -17 -153 -42 -170 -10 -8 -21 -26 -24 -41 -8 -39 -61 -99 -110 -126 -37
-19 -57 -22 -162 -22 -140 1 -176 14 -243 90 -129 147 -127 340 4 471 49 49
84 69 156 88 69 19 92 19 163 1z"/>
<path d="M2128 4890 c-83 -25 -142 -99 -140 -176 0 -44 17 -88 31 -80 4 3 18
-9 30 -25 18 -25 29 -30 51 -27 16 3 27 1 24 -3 -5 -9 73 -4 101 6 11 5 35 22
53 38 17 17 32 26 32 21 0 -19 -65 -72 -100 -82 -27 -8 -30 -10 -11 -11 34 -1
86 34 111 75 17 27 21 46 18 94 -2 40 1 59 8 56 24 -9 8 30 -27 65 -51 51
-116 69 -181 49z m88 -31 c63 -16 98 -60 91 -113 -19 -138 -208 -186 -283 -71
-34 52 22 152 101 180 49 17 38 17 91 4z"/>
<path d="M675 5121 c-52 -25 -44 -25 25 -1 30 11 46 19 35 19 -11 0 -38 -8
-60 -18z"/>
<path d="M2775 4463 c-3 -214 -7 -496 -10 -627 -5 -205 -3 -246 11 -285 10
-31 18 -94 21 -187 4 -122 2 -153 -16 -225 -21 -79 -21 -101 -16 -389 14 -785
15 -1074 5 -1084 -6 -6 -10 -132 -10 -351 l0 -341 -73 -72 -72 -72 -218 0
-217 0 -42 75 -43 74 -218 1 c-143 0 -216 -3 -212 -10 4 -6 85 -10 210 -10
l203 0 44 -75 43 -75 230 0 231 0 77 75 77 74 0 356 0 356 106 109 105 108 -3
53 -3 54 -82 -3 c-73 -4 -82 -2 -92 16 -17 32 -13 70 9 92 16 16 33 20 95 20
l75 0 0 53 0 52 -91 90 c-50 50 -97 102 -105 117 -11 22 -14 87 -14 330 0 273
2 310 20 373 16 56 20 100 20 221 0 136 -2 154 -20 177 -19 24 -20 40 -20 292
l0 266 105 108 c103 106 105 109 105 154 l0 47 -75 0 c-62 0 -79 4 -95 20 -25
25 -26 71 -2 100 16 20 29 23 93 24 l74 1 3 53 3 52 -99 100 c-54 55 -102 100
-105 100 -3 0 -9 -174 -12 -387z m191 159 c9 -35 -11 -50 -74 -54 -31 -2 -65
-8 -74 -12 -17 -8 -18 1 -18 106 0 63 3 118 7 122 10 10 153 -135 159 -162z
m-8 -247 c6 -3 12 -16 12 -30 0 -18 -21 -45 -77 -100 -43 -41 -81 -75 -85 -75
-4 0 -8 49 -8 109 l0 108 73 -4 c39 -3 78 -6 85 -8z m-67 -2083 c57 -55 70
-75 71 -100 1 -18 -1 -34 -3 -36 -2 -2 -32 -7 -67 -10 -35 -4 -69 -7 -75 -9
-8 -1 -13 28 -15 97 -3 93 0 126 13 126 3 0 37 -31 76 -68z m60 -332 c37 -20
23 -54 -57 -133 -42 -42 -80 -74 -85 -71 -5 3 -9 52 -9 110 l0 104 66 0 c36 0
74 -5 85 -10z"/>
<path d="M99 4733 l-86 -88 1 -54 1 -54 67 2 c37 1 75 -2 85 -7 17 -9 18 -2
18 139 0 82 0 149 0 149 0 0 -39 -39 -86 -87z m67 -70 l-1 -88 -65 0 c-64 0
-65 0 -68 28 -3 24 7 39 56 88 32 32 64 59 69 59 7 0 10 -32 9 -87z"/>
<path d="M2693 4520 c0 -41 2 -58 4 -37 2 20 2 54 0 75 -2 20 -4 3 -4 -38z"/>
<path d="M19 4405 c-1 0 -3 -23 -4 -51 l-3 -51 87 -87 87 -87 0 138 1 138 -84
0 c-45 0 -83 0 -84 0z m149 -109 c2 -44 -1 -83 -5 -87 -11 -11 -133 108 -133
129 0 32 22 43 80 40 l55 -3 3 -79z"/>
<path d="M2694 4110 c0 -129 2 -182 3 -117 2 64 2 170 0 235 -1 64 -3 11 -3
-118z"/>
<path d="M188 3648 c-3 -249 -2 -619 2 -823 3 -203 7 -323 8 -265 2 58 2 249
1 425 -1 176 0 499 1 718 1 218 0 397 -2 397 -3 0 -7 -204 -10 -452z"/>
<path d="M835 3890 c146 -16 260 -90 325 -212 60 -111 53 -257 -16 -375 -32
-54 -32 -56 -6 -26 69 80 93 243 53 358 -57 160 -183 254 -351 261 l-85 3 80
-9z"/>
<path d="M2055 3891 c-151 -40 -269 -170 -293 -324 -5 -29 -6 -75 -2 -103 5
-43 7 -37 11 46 3 83 8 104 37 162 93 190 330 269 524 174 26 -12 45 -19 42
-14 -3 5 -31 20 -62 34 -61 27 -199 41 -257 25z"/>
<path d="M673 3872 c-23 -9 -54 -27 -70 -39 -24 -19 -21 -19 20 4 27 14 67 31
90 39 23 7 33 13 22 13 -11 0 -39 -8 -62 -17z"/>
<path d="M729 3857 c-118 -34 -228 -134 -257 -237 -7 -25 -29 -75 -48 -112
-46 -91 -45 -121 12 -227 65 -123 114 -192 152 -215 29 -16 54 -19 187 -19
188 0 211 10 269 108 20 35 44 66 52 69 8 3 14 11 12 18 -1 7 16 49 37 92 37
75 40 86 40 165 0 75 -4 94 -32 153 -59 124 -175 205 -310 213 -39 3 -87 0
-114 -8z m186 -31 c33 -8 49 -14 36 -15 -20 -1 -15 -6 25 -26 57 -29 57 -29
48 -12 -17 31 55 -55 84 -100 37 -58 55 -111 44 -127 -8 -11 -8 -19 3 -101 3
-22 2 -34 -1 -27 -5 10 -9 10 -22 0 -13 -11 -15 -9 -10 17 10 51 -95 237 -155
274 -54 33 -208 45 -330 25 -29 -4 -52 -19 -89 -57 l-50 -51 20 41 c24 46 72
90 108 99 13 3 24 10 24 15 0 5 9 9 19 9 11 0 28 3 38 7 15 6 13 9 -12 14
l-30 7 35 2 c19 1 44 5 54 9 32 12 98 11 161 -3z m-2 -130 c148 -72 231 -250
183 -392 -27 -79 -101 -178 -154 -207 -44 -23 -55 -24 -184 -23 -130 2 -138 3
-170 28 -19 14 -45 48 -59 75 -13 26 -26 50 -29 53 -3 3 -21 29 -39 58 -31 49
-33 57 -29 116 9 112 75 221 168 279 86 54 219 59 313 13z"/>
<path d="M675 3547 c-25 -21 -26 -25 -16 -64 14 -50 68 -107 118 -124 20 -6
57 -9 84 -6 42 5 47 4 42 -11 -4 -11 -3 -14 4 -7 6 6 13 23 17 39 6 25 5 28
-11 21 -86 -36 -170 -13 -213 58 -11 18 -20 40 -20 50 0 43 122 48 179 8 17
-13 43 -45 56 -72 14 -27 28 -49 31 -49 14 0 -8 83 -28 111 -50 67 -188 94
-243 46z"/>
<path d="M877 3289 c-15 -20 -44 -38 -78 -50 -30 -10 -47 -18 -38 -19 47 -1
118 41 140 83 15 27 3 20 -24 -14z"/>
<path d="M2064 3856 c-69 -17 -134 -56 -182 -111 -67 -76 -85 -125 -92 -250
-4 -60 -7 -104 -8 -96 -1 8 -4 12 -7 9 -10 -9 15 -61 92 -191 100 -169 102
-170 311 -170 l152 -1 41 30 c31 22 60 61 115 158 79 138 88 173 61 239 -8 18
-20 57 -27 87 -36 155 -137 263 -279 296 -68 16 -109 16 -177 0z m181 -31 c28
-7 43 -14 35 -15 -8 -1 -2 -7 14 -14 20 -9 25 -15 15 -19 -9 -4 -7 -6 6 -6 44
-2 90 -48 138 -137 50 -93 58 -127 12 -48 -36 61 -91 121 -128 141 -37 18
-256 21 -309 4 -49 -16 -120 -94 -168 -183 -36 -68 -60 -101 -60 -84 0 3 11
31 25 62 29 66 30 71 10 54 -8 -7 -15 -10 -15 -6 0 12 59 121 79 146 23 28 26
24 11 -17 -9 -26 -9 -27 5 -8 8 11 20 27 27 35 7 8 12 17 11 20 -2 6 41 30 82
46 18 7 16 8 -10 12 -24 4 -18 7 35 17 89 16 126 17 185 0z m80 -134 c99 -49
163 -136 185 -250 12 -65 -1 -133 -35 -172 -13 -16 -27 -39 -31 -51 -12 -41
-64 -108 -97 -125 -25 -13 -62 -17 -167 -19 -184 -2 -205 9 -288 151 -51 87
-65 146 -52 215 44 234 276 354 485 251z"/>
<path d="M2091 3553 c-40 -20 -91 -87 -91 -120 0 -14 4 -21 10 -18 10 6 15 -9
10 -30 -1 -5 1 -7 5 -3 4 3 25 -2 48 -13 23 -10 59 -19 80 -19 39 0 104 28
126 54 7 8 19 12 28 9 13 -5 15 0 11 25 -2 18 -1 32 4 32 29 0 -19 63 -69 89
-32 16 -123 13 -162 -6z m155 -29 c51 -24 59 -38 39 -71 -31 -51 -64 -68 -135
-68 -52 0 -72 5 -98 23 l-32 24 17 30 c40 67 137 96 209 62z"/>
<path d="M2291 3295 c-15 -23 -41 -41 -75 -55 -42 -17 -45 -19 -16 -14 19 3
46 13 59 23 28 20 67 68 60 75 -2 3 -15 -11 -28 -29z"/>
<path d="M2694 3785 c0 -49 1 -71 3 -48 2 23 2 64 0 90 -2 26 -3 8 -3 -42z"/>
<path d="M2694 3505 c0 -104 2 -146 3 -92 2 54 2 139 0 190 -1 51 -3 7 -3 -98z"/>
<path d="M2694 3105 c0 -115 2 -161 3 -102 2 59 2 154 0 210 -1 56 -3 8 -3
-108z"/>
<path d="M2694 2795 c0 -55 1 -76 3 -47 2 29 2 74 0 100 -2 26 -3 2 -3 -53z"/>
<path d="M2694 2510 c0 -102 2 -143 3 -92 2 50 2 134 0 185 -1 50 -3 9 -3 -93z"/>
<path d="M750 2474 c-80 -52 -150 -123 -150 -153 0 -48 111 -169 225 -244 64
-43 61 -32 -9 44 -61 66 -116 158 -116 194 0 32 30 86 74 133 69 74 61 82 -24
26z m-80 -159 c0 -19 -4 -35 -10 -35 -12 0 -24 45 -15 59 13 22 25 10 25 -24z"/>
<path d="M97 2313 c-87 -88 -87 -88 -87 -140 l0 -53 78 0 c47 0 83 -5 90 -12
9 -9 12 22 12 140 0 84 -2 152 -4 152 -1 0 -42 -39 -89 -87z m73 -70 c0 -88
-3 -93 -64 -93 -67 0 -80 9 -71 48 8 38 115 138 127 119 4 -7 8 -40 8 -74z"/>
<path d="M948 2293 c76 -167 -20 -316 -267 -410 -68 -26 -79 -32 -54 -33 40 0
181 44 248 78 121 60 245 165 245 205 0 27 -69 116 -135 171 -29 26 -56 46
-59 46 -2 0 7 -26 22 -57z m96 -98 c34 -34 41 -61 21 -91 -16 -26 -95 -87
-102 -80 -3 2 5 23 17 46 12 24 24 67 27 96 3 30 7 54 9 54 2 0 14 -11 28 -25z"/>
<path d="M1253 2313 c-3 -10 -17 -42 -30 -72 -27 -63 -27 -61 -9 -61 8 0 18 9
21 20 4 14 15 20 35 20 20 0 31 -6 35 -20 3 -11 13 -20 21 -20 18 0 19 -7 -14
74 -30 73 -47 91 -59 59z m27 -32 c0 -5 3 -16 6 -25 4 -12 0 -16 -16 -16 -16
0 -20 4 -16 16 3 9 6 20 6 25 0 5 5 9 10 9 6 0 10 -4 10 -9z"/>
<path d="M1482 2314 c-31 -22 -27 -41 13 -65 19 -12 35 -25 35 -30 0 -15 -30
-23 -43 -10 -15 15 -27 14 -27 -4 0 -19 48 -31 69 -18 9 6 17 22 19 37 3 22
-2 29 -27 39 -38 14 -43 42 -6 35 29 -6 45 10 24 23 -20 12 -32 11 -57 -7z"/>
<path d="M1690 2256 l0 -76 40 0 c51 0 80 27 80 73 0 43 -26 67 -79 74 l-41 6
0 -77z m90 24 c14 -26 5 -57 -21 -71 -34 -18 -49 -4 -49 46 0 43 1 45 30 45
19 0 33 -7 40 -20z"/>
<path d="M1950 2255 l0 -75 45 0 c34 0 45 4 45 16 0 11 -8 14 -32 12 -24 -2
-33 1 -36 15 -3 13 3 17 28 17 21 0 30 4 27 13 -2 6 -15 12 -28 12 -15 0 -25
7 -27 18 -3 14 4 17 32 17 25 0 36 4 36 15 0 11 -12 15 -45 15 l-45 0 0 -75z"/>
<path d="M2213 2313 c-3 -10 -17 -42 -30 -72 -27 -63 -27 -61 -9 -61 8 0 18 9
21 20 4 14 15 20 35 20 20 0 31 -6 35 -20 3 -11 13 -20 21 -20 18 0 19 -5 -14
75 -29 72 -47 89 -59 58z m27 -32 c0 -5 3 -16 6 -25 4 -12 0 -16 -16 -16 -16
0 -20 4 -16 16 3 9 6 20 6 25 0 5 5 9 10 9 6 0 10 -4 10 -9z"/>
<path d="M2695 1875 c0 -247 1 -347 2 -222 2 126 2 328 0 450 -1 122 -2 20 -2
-228z"/>
<path d="M1200 2150 c0 -6 203 -10 550 -10 344 0 550 4 550 10 0 6 -206 9
-550 9 -347 0 -550 -3 -550 -9z"/>
<path d="M1200 2070 c0 -22 5 -40 10 -40 6 0 10 9 10 20 0 11 7 20 15 20 8 0
15 -9 15 -20 0 -11 5 -20 10 -20 6 0 10 18 10 40 0 22 -4 40 -10 40 -5 0 -10
-7 -10 -15 0 -8 -7 -15 -15 -15 -8 0 -15 7 -15 15 0 8 -4 15 -10 15 -5 0 -10
-18 -10 -40z"/>
<path d="M1357 2070 c-17 -44 -16 -46 13 -27 17 10 22 9 30 -3 16 -26 22 -3 9
34 -17 47 -32 45 -52 -4z"/>
<path d="M1500 2070 c0 -22 4 -40 10 -40 5 0 7 7 4 15 -4 8 -2 15 4 15 5 0 12
-7 16 -15 3 -8 10 -15 16 -15 7 0 8 6 0 19 -6 13 -7 22 0 26 17 10 -1 35 -26
35 -21 0 -24 -4 -24 -40z"/>
<path d="M1640 2070 c0 -39 2 -41 26 -38 15 2 32 11 38 21 15 24 -3 51 -38 55
-24 3 -26 1 -26 -38z m48 2 c3 -17 -2 -22 -17 -22 -16 0 -21 6 -21 26 0 33 33
30 38 -4z"/>
<path d="M1784 2094 c3 -9 9 -27 12 -40 8 -31 22 -31 30 1 7 28 24 24 24 -6 0
-32 21 -17 35 24 13 39 1 52 -15 15 l-9 -23 -7 23 c-9 30 -20 28 -32 -5 l-10
-28 -7 28 c-4 15 -12 27 -17 27 -6 0 -7 -7 -4 -16z"/>
<path d="M1968 2070 c-17 -40 -13 -51 10 -28 10 10 17 10 32 0 29 -18 30 -16
12 28 -9 22 -21 40 -27 40 -5 0 -18 -18 -27 -40z"/>
<path d="M2110 2070 c0 -23 5 -40 11 -40 6 0 9 7 5 15 -7 20 4 19 20 -2 7 -10
16 -15 20 -11 4 4 2 14 -4 21 -8 10 -8 17 -1 24 16 16 2 33 -27 33 -21 0 -24
-4 -24 -40z"/>
<path d="M2250 2070 c0 -36 3 -40 25 -40 14 0 25 5 25 11 0 6 -7 9 -15 6 -8
-4 -17 -2 -20 3 -4 6 1 10 9 10 22 0 20 18 -1 23 -15 3 -14 6 7 15 l25 11 -27
0 c-26 1 -28 -2 -28 -39z"/>
<path d="M20 1986 c-6 -6 -10 -31 -10 -56 0 -44 3 -48 90 -135 l90 -90 0 146
0 145 -80 0 c-45 -1 -85 -5 -90 -10z m117 -22 c12 -3 25 -15 28 -25 8 -24 -5
-149 -14 -149 -11 0 -111 98 -112 110 -1 6 -2 16 -3 23 -7 40 37 58 101 41z"/>
<path d="M192 1338 l-2 -356 28 -29 c15 -16 49 -55 75 -86 l48 -57 233 0 232
0 42 74 c31 55 48 75 67 78 24 5 25 3 25 -39 0 -43 0 -44 58 -71 l57 -27 3
-110 3 -110 -61 -27 -60 -26 0 -133 c0 -124 2 -134 24 -163 18 -24 24 -48 28
-100 5 -78 17 -93 103 -123 40 -15 81 -18 210 -17 142 0 167 3 217 23 78 30
98 58 98 134 0 46 5 66 19 81 18 19 20 38 22 161 l2 140 -57 28 -57 27 3 111
3 111 55 23 c53 22 55 25 57 64 l2 41 -360 0 c-233 0 -359 4 -359 10 0 6 -17
10 -37 10 -37 0 -40 -3 -81 -75 l-44 -75 -217 0 -217 0 -41 43 c-22 23 -55 62
-72 86 -17 24 -32 40 -33 35 -2 -5 -5 151 -8 346 l-5 355 -3 -357z m1418 -418
c0 -5 -6 -14 -12 -19 -7 -6 -30 -25 -52 -43 l-38 -32 4 -109 3 -110 45 -39
c36 -32 41 -41 30 -49 -11 -7 -8 -8 10 -4 l25 6 0 -108 c0 -95 -3 -112 -23
-145 -13 -21 -21 -42 -18 -47 4 -5 2 -13 -4 -16 -6 -4 -8 -21 -4 -41 7 -40
-10 -66 -54 -82 -15 -6 -36 -13 -47 -18 -11 -4 -42 -9 -70 -11 -27 -3 -55 -9
-60 -13 -6 -5 -26 -7 -45 -4 -90 12 -117 16 -140 18 -14 2 -46 13 -72 25 -51
23 -66 49 -54 96 4 15 2 25 -5 25 -6 0 -9 6 -6 13 2 6 -7 33 -20 59 -22 42
-24 57 -21 148 3 89 5 100 20 97 11 -3 15 0 11 9 -3 8 3 17 13 21 25 8 52 37
63 66 5 12 8 65 6 116 -4 101 -10 114 -72 152 -18 11 -33 27 -33 35 0 12 49
14 310 14 192 0 310 -4 310 -10z"/>
<path d="M1130 471 c43 -8 168 -7 177 2 3 4 -43 6 -103 6 -68 -1 -96 -4 -74
-8z"/>
<path d="M1348 473 c17 -2 47 -2 65 0 17 2 3 4 -33 4 -36 0 -50 -2 -32 -4z"/>
<path d="M1484 447 c-3 -9 -2 -38 3 -65 l9 -47 5 53 c4 57 -5 90 -17 59z"/>
<path d="M1422 1269 c-31 -58 -36 -95 -8 -56 17 23 106 25 106 2 0 -8 7 -15
15 -15 8 0 15 3 15 8 -1 18 -68 117 -81 120 -8 1 -27 -23 -47 -59z m78 -11 c0
-5 -13 -8 -30 -8 -34 0 -34 0 -18 35 l12 26 18 -23 c10 -13 18 -26 18 -30z"/>
<path d="M1590 1265 l0 -65 55 0 c62 0 95 22 95 65 0 43 -33 65 -95 65 l-55 0
0 -65z m109 36 c7 -5 14 -21 14 -36 0 -33 -17 -45 -65 -45 l-38 0 0 45 0 45
38 0 c20 0 43 -4 51 -9z"/>
<path d="M1802 1269 c-19 -33 -31 -64 -27 -67 4 -4 12 1 19 11 17 22 94 24
102 2 4 -8 13 -15 21 -15 19 0 -47 124 -68 128 -8 1 -28 -23 -47 -59z m63 11
l16 -30 -31 0 c-16 0 -30 2 -30 5 0 7 23 55 26 55 2 0 10 -13 19 -30z"/>
<path d="M1974 1317 c-3 -8 -4 -36 -2 -63 l3 -49 43 -3 c28 -2 42 -8 42 -18 0
-8 7 -14 15 -14 8 0 12 6 9 14 -3 8 3 16 16 19 19 5 21 12 18 64 l-3 58 -68 3
c-51 2 -69 -1 -73 -11z m120 -52 c1 -30 -3 -41 -16 -43 -9 -2 -19 5 -23 18 -3
11 -10 18 -15 15 -5 -3 -7 -12 -3 -20 4 -11 -2 -15 -21 -15 -24 0 -26 3 -26
46 l0 45 52 -3 51 -3 1 -40z"/>
<path d="M2260 1265 l0 -65 60 0 c33 0 60 4 60 10 0 6 -23 10 -51 10 l-52 0 6
55 c4 44 3 55 -9 55 -11 0 -14 -15 -14 -65z"/>
<path d="M2421 1298 c2 -18 0 -39 -5 -46 -4 -7 -4 -21 -1 -33 6 -18 14 -20 68
-17 l62 3 0 60 0 60 -63 3 -64 3 3 -33z m109 -3 c0 -11 -12 -15 -45 -15 -33 0
-45 4 -45 15 0 11 12 15 45 15 33 0 45 -4 45 -15z m0 -55 c0 -17 -7 -20 -45
-20 -38 0 -45 3 -45 20 0 17 7 20 45 20 38 0 45 -3 45 -20z"/>
<path d="M2694 1170 c0 -85 2 -120 3 -77 2 42 2 112 0 155 -1 42 -3 7 -3 -78z"/>
<path d="M2160 1270 c0 -5 14 -10 30 -10 17 0 30 5 30 10 0 6 -13 10 -30 10
-16 0 -30 -4 -30 -10z"/>
<path d="M1480 1042 l645 -2 44 -80 44 -80 192 0 191 0 54 55 c29 30 52 57 49
60 -3 2 -27 -18 -54 -45 l-49 -50 -191 0 -191 0 -43 75 -42 75 -647 -2 -647
-3 645 -3z"/>
<path d="M818 1008 c-23 -35 -52 -94 -40 -83 13 14 65 105 59 105 -3 0 -11
-10 -19 -22z"/>
</g>
</svg>